<?xml version="1.0" encoding="UTF-8"?>
<svg width="357px" height="46px" viewBox="0 0 357 46" version="1.1" xmlns="http://www.w3.org/2000/svg" xmlns:xlink="http://www.w3.org/1999/xlink">
    <title>Equinox_White_sm</title>
    <g id="Page-1" stroke="none" stroke-width="1" fill="none" fill-rule="evenodd">
        <g id="Equinox_White_sm" transform="translate(0.000000, -0.000000)" fill="#FFFFFF" fill-rule="nonzero">
            <path d="M271.046,18.869 C271.052,15.9044 272.233,13.0632 274.331,10.9675 C276.429,8.87180002 279.271,7.69237002 282.237,7.68751002 C283.663,7.67817002 285.077,7.95796002 286.392,8.50998002 L290.993,2.16210002 C286.962,0.0501842238 282.303,-0.536630976 277.874,0.509463024 C273.444,1.55556002 269.541,4.16430002 266.881,7.85644002 C264.221,11.5486 262.983,16.0761 263.395,20.6073 C263.807,25.1384 265.84,29.3689 269.122,32.5215 L273.737,26.1736 C272.005,24.1329 271.052,21.5452 271.046,18.869 Z M233.146,23.4026 L215.545,0.456457024 L208.125,0.456457024 L208.125,37.2557 L215.842,37.2557 L215.842,13.4908 L234.107,37.2263 L240.917,37.2263 L240.917,0.456457024 L233.186,0.456457024 L233.186,23.375 L233.146,23.4026 Z M290.888,11.706 C292.253,13.3375 293.124,15.3243 293.398,17.433 C293.673,19.5418 293.34,21.6851 292.439,23.6115 C291.538,25.5379 290.106,27.1674 288.311,28.3089 C286.516,29.4504 284.433,30.0564 282.305,30.0559 C280.913,30.0561 279.533,29.7926 278.239,29.2795 L273.637,35.6734 C277.662,37.7467 282.297,38.3072 286.7,37.253 C291.103,36.1987 294.981,33.5997 297.629,29.9288 C300.277,26.2578 301.519,21.7587 301.129,17.2499 C300.739,12.741 298.742,8.52189002 295.503,5.35996002 L290.888,11.706 Z M342.763,18.1459 L355.806,0.428858024 L346.19,0.428858024 L337.951,11.6158 L329.745,0.456457024 L320.154,0.456457024 L333.193,18.1716 L319.195,37.2925 L328.788,37.2925 L338.056,24.6888 L347.326,37.2925 L356.91,37.2925 L342.763,18.1459 Z M78.6841,18.869 C78.6841,16.6564 78.0278,14.4935 76.798,12.6538 C75.5683,10.8141 73.8204,9.38027002 71.7755,8.53355002 C69.7305,7.68684002 67.4803,7.46530002 65.3094,7.89695002 C63.1384,8.32860002 61.1443,9.39406002 59.5792,10.9586 C58.014,12.5231 56.9482,14.5164 56.5163,16.6865 C56.0845,18.8566 56.3061,21.1059 57.1532,23.15 C58.0002,25.1942 59.4347,26.9414 61.2751,28.1706 C63.1155,29.3998 65.2793,30.0559 67.4927,30.0559 L67.5166,30.0559 C70.4789,30.0457 73.3165,28.8629 75.4084,26.7663 C77.5004,24.6697 78.6762,21.8301 78.6786,18.869 L78.6841,18.869 Z M73.9793,36.6301 C75.7132,38.6817 80.9242,39.8721 85.6235,39.1398 L79.275,45.6239 C71.8312,45.6239 64.5347,39.736 62.7879,37.1748 C58.4098,36.0556 54.5782,33.4047 51.9883,29.7029 C49.3985,26.0012 48.2221,21.494 48.6726,16.9993 C49.1231,12.5047 51.1707,8.32039002 54.4437,5.20584002 C57.7168,2.09129002 61.9984,0.252869024 66.5116,0.0242197238 C71.0247,-0.204429976 75.4704,1.19184002 79.0417,3.95964002 C82.613,6.72744002 85.0733,10.6833 85.9761,15.1094 C86.8789,19.5355 86.1644,24.1385 83.9622,28.083 C81.7601,32.0275 78.2162,35.0522 73.9738,36.6081 L73.9793,36.6301 Z M7.71435,22.525 L23.3326,22.525 L23.3326,15.2203 L7.71619,15.2203 L7.71619,7.77951002 L23.8627,7.77951002 L23.8627,0.456457024 L0,0.456457024 L0,37.2925 L24.3781,37.2925 L24.3781,29.9658 L7.71066,29.9658 L7.71066,22.525 L7.71435,22.525 Z M171.553,37.2594 L179.284,37.2594 L179.284,0.456457024 L171.553,0.456457024 L171.553,37.2594 Z M133.848,0.456457024 L141.559,0.456457024 L141.559,21.5498 C141.48,25.796 139.738,29.8417 136.706,32.8169 C133.674,35.7921 129.595,37.4589 125.347,37.4589 C121.098,37.4589 117.019,35.7921 113.987,32.8169 C110.956,29.8417 109.213,25.796 109.135,21.5498 L109.135,0.456457024 L116.84,0.456457024 L116.84,21.5498 C116.84,23.8043 117.736,25.9665 119.331,27.5607 C120.925,29.1548 123.088,30.0504 125.344,30.0504 C127.599,30.0504 129.762,29.1548 131.357,27.5607 C132.952,25.9665 133.848,23.8043 133.848,21.5498 L133.848,0.456457024 Z" id="Shape"></path>
        </g>
    </g>
</svg>