<?xml version="1.0" standalone="no"?>
<!DOCTYPE svg PUBLIC "-//W3C//DTD SVG 20010904//EN"
 "http://www.w3.org/TR/2001/REC-SVG-20010904/DTD/svg10.dtd">
<svg version="1.0" xmlns="http://www.w3.org/2000/svg"
 width="500.000000pt" height="93.000000pt" viewBox="0 0 500.000000 93.000000"
 preserveAspectRatio="xMidYMid meet">

<g transform="translate(0.000000,93.000000) scale(0.100000,-0.100000)"
fill="#000000" stroke="none">
<path d="M1080 460 l0 -150 95 0 95 0 0 30 0 30 -65 0 -65 0 0 30 c0 29 1 29
63 32 59 3 62 4 65 31 l3 27 -65 0 -66 0 0 30 0 30 65 0 65 0 0 30 0 30 -95 0
-95 0 0 -150z"/>
<path d="M1545 592 c-88 -56 -104 -154 -39 -231 14 -17 35 -33 47 -37 12 -4
37 -19 54 -35 43 -37 97 -48 123 -24 27 24 25 35 -4 35 -55 0 -59 11 -18 45
73 63 77 158 8 225 -45 43 -123 53 -171 22z m130 -67 c38 -37 35 -95 -6 -129
-40 -34 -74 -33 -110 3 -21 22 -29 39 -29 66 0 75 92 114 145 60z"/>
<path d="M1950 508 c0 -86 3 -109 20 -136 40 -65 128 -77 189 -26 38 32 51 77
51 182 l0 82 -35 0 -35 0 0 -100 c0 -87 -3 -103 -20 -120 -26 -26 -51 -25 -84
1 -25 20 -26 24 -26 120 l0 99 -30 0 -30 0 0 -102z"/>
<path d="M2442 463 l3 -148 30 0 30 0 3 148 3 147 -36 0 -36 0 3 -147z"/>
<path d="M2732 463 l3 -148 30 0 30 0 5 90 5 89 69 -92 c59 -81 72 -93 95 -90
l26 3 3 148 3 147 -35 0 -35 0 -3 -87 -3 -86 -65 86 c-58 78 -68 87 -98 87
l-33 0 3 -147z"/>
<path d="M3265 601 c-64 -26 -104 -111 -85 -180 24 -91 73 -72 63 24 -5 48 -3
56 20 79 18 18 37 26 60 26 41 0 81 35 57 50 -18 12 -88 12 -115 1z"/>
<path d="M3639 593 c5 -10 28 -42 50 -72 25 -33 37 -58 32 -65 -4 -6 -30 -40
-56 -76 l-47 -65 33 -3 c35 -4 46 5 95 72 l21 29 39 -51 c32 -44 43 -52 71
-52 18 0 33 4 33 9 0 4 -22 38 -50 74 -27 36 -50 69 -50 73 0 3 23 37 50 75
l50 69 -39 0 c-36 0 -43 -4 -72 -46 l-31 -46 -32 46 c-27 40 -35 45 -69 46
-33 0 -36 -2 -28 -17z"/>
<path d="M3412 548 c-7 -7 -9 -30 -5 -68 5 -54 4 -57 -28 -84 -23 -20 -41 -27
-61 -24 -21 4 -32 -1 -44 -20 -21 -31 -13 -37 51 -37 39 0 61 6 82 21 60 45
83 126 52 189 -16 33 -30 40 -47 23z"/>
</g>
</svg>
